inDegrees=yes
name=ik_Xsens_quaternion
DataType=double
version=3
OpenSimVersion=4.4-2022-07-23-0e9fedc
endheader
time	pelvis_tilt	pelvis_list	pelvis_rotation	pelvis_tx	pelvis_ty	pelvis_tz	hip_flexion_r	hip_adduction_r	hip_rotation_r	knee_angle_r	knee_angle_r_beta	ankle_angle_r	subtalar_angle_r	mtp_angle_r	hip_flexion_l	hip_adduction_l	hip_rotation_l	knee_angle_l	knee_angle_l_beta	ankle_angle_l	subtalar_angle_l	mtp_angle_l	lumbar_extension	lumbar_bending	lumbar_rotation	arm_flex_r	arm_add_r	arm_rot_r	elbow_flex_r	pro_sup_r	wrist_flex_r	wrist_dev_r	arm_flex_l	arm_add_l	arm_rot_l	elbow_flex_l	pro_sup_l	wrist_flex_l	wrist_dev_l
45.36666666666667	0	0	0	0	0.93	0	0	0	0	0	0	0	0	0	0	0	0	0	0	0	0	0	0	0	0	8726.570967982585	-1234.672575819862	4732.703766502658	-942.147933616661	5251.12963295633	0	0	-4330.15489118986	-1447.229000831978	4075.467535630148	-92.32895848489603	4942.076351251365	0	0
45.38333333333333	0	0	0	0	0.93	0	0	0	0	0	5.877471754111438e-39	0	0	0	0	0	0	0	5.877471754111438e-39	0	0	0	0	0	0	8726.672370201904	-1234.682537697998	4732.824269875777	-942.0160503178256	5251.271949833538	0	0	-4329.76667366475	-1447.14030914925	4075.564532212812	-91.87680947967745	4942.581694537676	0	0
45.4	0	0	0	0	0.93	0	0	0	0	0	0	0	0	0	0	0	0	0	0	0	0	0	0	0	0	8726.767658801729	-1234.666499092485	4732.963027158942	-941.9060170663923	5251.455794905311	0	0	-4329.396462609256	-1447.034514797569	4075.654989686891	-91.43858922636915	4943.060060102023	0	0
45.41666666666666	0	0	0	0	0.93	0	0	0	0	0	2.350988701644575e-38	0	0	0	0	0	0	0	2.350988701644575e-38	0	0	0	0	0	0	8726.851861921539	-1234.642627871704	4733.11180675356	-941.8455323887684	5251.653792613725	0	0	-4329.057968129171	-1446.928519536656	4075.733140209227	-91.00684502941398	4943.515069746338	0	0
45.43333333333333	0	-1.76546760257903e-23	0	1.282528797401239e-24	0.93	1.3181215627949e-25	2.609375854929206e-43	4.429573841519829e-32	2.370160033861826e-31	3.144405474863832e-07	5.488022855715581e-09	-2.348485512300716e-15	1.444729054134371e-13	-3.890817205574086e-23	-5.65273393311663e-25	-1.204589456299446e-24	1.795884717473176e-25	3.144405474863832e-07	5.488022855715581e-09	1.293632533049832e-15	4.73932451279987e-17	-4.111748756662328e-23	4.085393023673935e-23	6.982981122097326e-23	2.525946510297668e-23	8726.947888630883	-1234.629613600339	4733.255182446629	-941.7909856403921	5251.83295846162	-3.421752704101783e-25	-5.074194456801624e-23	-4328.752144869204	-1446.829434975195	4075.810589612646	-90.59699362828729	4943.975385829923	-4.800247208950813e-23	-7.68859217206629e-23
45.45	0	0	0	0	0.93	0	0	0	0	0	0	0	0	0	0	0	0	0	0	0	0	0	0	0	0	8727.034387057058	-1234.624840248323	4733.398029382661	-941.7358709673588	5252.011682558837	0	0	-4328.481261361378	-1446.731861322372	4075.885465369927	-90.22516393210148	4944.424165340331	0	0
45.46666666666667	-1.722857352817866e-25	-2.405396382963929e-15	1.530465908595547e-25	3.312304666041975e-24	0.93	4.725324049897142e-22	4.446111865341059e-29	3.59158849452139e-20	0	0	-1.458696273101028e-17	1.922976218010162e-19	3.728968171321288e-18	-1.284056989402026e-17	7.355304139388225e-20	-3.729342406206153e-29	-3.215260717235201e-20	0	-1.473322164554164e-17	-5.355191641257771e-18	8.665248392659486e-25	-4.656142811925431e-16	-1.722857352817866e-25	-1.353581241039291e-17	3.156034330695804e-24	8727.087416405369	-1234.619382300008	4733.549684437069	-941.6956089508853	5252.171726002523	-1.184926176252232e-18	-9.901257788195738e-17	-4328.233689225491	-1446.637280917285	4075.93705170129	-89.86694313122614	4944.86935633061	-1.163671690903405e-20	5.710820799435638e-17
45.48333333333333	-1.677098484051765e-24	-1.011636659193432e-16	6.188975681763363e-25	-2.694270869667643e-20	0.93	1.185163308033291e-21	2.521616390975923e-33	1.981173252004354e-25	-9.534799175042971e-26	0	-1.494245611989002e-17	-1.646317433622155e-14	-1.17876917717795e-17	2.540061885761889e-14	-8.153479020256889e-16	-4.21132181920778e-16	1.769977066926807e-16	0	-1.516603433537742e-17	2.405896230827178e-14	-1.649815426155581e-15	4.524742151330146e-15	-6.463965439556623e-17	4.701362707306972e-17	-1.007352556741931e-16	8727.12524072885	-1234.617520709507	4733.683798092809	-941.661363447222	5252.314271840348	5.156830952040978e-15	-2.315966112075027e-13	-4327.992561496959	-1446.571975779931	4075.964873395189	-89.49857236311507	4945.310822630113	1.470624004806806e-14	5.197837661419304e-21
45.5	0	0	0	0	0.93	0	0	0	0	0	-3.807357889262928e-42	0	0	0	0	0	0	1.142207579488842e-40	-1.742330593809973e-42	0	0	0	0	0	0	8727.188493186412	-1234.635413275438	4733.805520147813	-941.6143972629296	5252.437690155865	0	0	-4327.741752761665	-1446.513599639874	4075.986336992943	-89.11726366034348	4945.782938922283	0	0
45.51666666666667	-2.598405372642712e-24	-1.562089677578222e-14	5.518064467628407e-26	1.243980565872084e-21	0.93	-1.09301568043319e-19	-7.538640742192015e-27	1.907052130104231e-16	0	0	-3.882792427738237e-18	-2.66677821042943e-19	1.304928614359548e-19	-2.565337335044458e-16	-4.708333150659178e-15	-2.212170491552247e-25	5.068996282013085e-15	0	-3.895639357572308e-18	-8.946662513368528e-21	-2.445248302861564e-24	-2.019691026191797e-16	-2.598405372642712e-24	1.405759741482015e-17	-2.134029161070858e-23	8727.26472458219	-1234.652894312347	4733.925149336611	-941.5726504731718	5252.576761378232	8.527016171974059e-18	-1.937108882386439e-15	-4327.494989385095	-1446.438338141973	4076.015396035378	-88.73470345412996	4946.230630286402	8.544237831413298e-20	-1.294356517606915e-15
45.53333333333333	0	0	0	0	0.93	0	0	0	0	0	0	0	0	0	0	0	0	0	0	0	0	0	0	0	0	8727.353130864078	-1234.673131855248	4734.053676436647	-941.5264275031063	5252.736134481781	0	0	-4327.24177445269	-1446.364745595781	4076.034999649937	-88.36514545706346	4946.639618505849	0	0
45.55	0	0	0	0	0.93	0	0	0	0	0	2.655046027537062e-40	0	0	0	0	0	0	0	2.655046027537062e-40	0	0	0	0	0	0	8727.43047317112	-1234.697409873658	4734.184266282484	-941.4598990393602	5252.887148975055	0	0	-4326.984572568825	-1446.293978257666	4076.057153306086	-87.99712502094629	4947.002580672572	0	0
45.56666666666666	0	0	0	0	0.93	0	0	0	0	0	0	0	0	0	0	0	0	0	0	0	0	0	0	0	0	8727.499340142089	-1234.722011325123	4734.327407775599	-941.3845382101816	5253.052736017687	0	0	-4326.71066058314	-1446.228589605499	4076.080514781811	-87.60995466217491	4947.441471632083	0	0
45.58333333333334	6.259789235830501e-28	-2.668689821078371e-25	-1.205531947781587e-28	-7.214638059916429e-29	0.93	4.688166405697577e-29	-3.146967336462323e-40	-1.178413704299456e-28	0	0	-9.986318901061309e-18	-5.299789061591068e-20	-9.759479580556899e-23	1.335319441500854e-23	-3.726977247642866e-27	-3.825830089730583e-37	8.244493757187046e-30	0	-1.037381498641051e-17	-2.487668597842614e-20	8.979783036571053e-23	7.358395506055685e-22	6.061015173890089e-27	1.760658509235845e-19	1.727011245903527e-18	8727.58387220976	-1234.750541653551	4734.474073446243	-941.309470174156	5253.222707899797	1.040072142216579e-21	1.286531333392168e-21	-4326.431086806548	-1446.14946239458	4076.09696458804	-87.23269936059425	4947.892994222967	-3.092909813933529e-27	2.530734629037222e-24
45.6	0	0	0	0	0.93	0	0	0	0	0	0	0	0	0	0	0	0	0	0	0	0	0	0	0	0	8727.668946249862	-1234.789190306677	4734.648931015639	-941.2188895774887	5253.431410072674	0	0	-4326.150744543681	-1446.063851916593	4076.156830691164	-86.86437425350641	4948.387454943882	0	0
45.61666666666667	0	0	0	0	0.93	0	0	0	0	0	0	0	0	0	0	0	0	0	0	0	0	0	0	0	0	8727.761731200628	-1234.812736978366	4734.846404103796	-941.1467055907799	5253.6496219528	0	0	-4325.850317443502	-1445.986748961437	4076.221532118718	-86.48766371714665	4948.911783701315	0	0
45.63333333333333	0	0	0	0	0.93	0	0	0	0	0	5.877471754111438e-39	0	0	0	0	0	0	0	5.877471754111438e-39	0	0	0	0	0	0	8727.873299032866	-1234.825675010523	4735.046565891918	-941.0808825918898	5253.848613876276	0	0	-4325.526136150615	-1445.912118098557	4076.245737774741	-86.08991484105447	4949.450636411712	0	0
45.65	0	0	0	0	0.93	0	0	0	0	0	0	0	0	0	0	0	0	0	0	0	0	0	0	0	0	8727.98791101049	-1234.848996820916	4735.229869823028	-940.9896154974697	5254.036615240128	0	0	-4325.189369907914	-1445.834807534477	4076.265916697376	-85.68365794058647	4949.962096764326	0	0
45.66666666666666	0	0	0	0	0.93	0	0	0	0	0	0	0	0	0	0	0	0	0	0	0	0	0	0	0	0	8728.102892027091	-1234.868819926658	4735.415180738377	-940.901826425338	5254.183228403933	0	0	-4324.843264608119	-1445.770414498175	4076.26508678367	-85.27120642153785	4950.420088269448	0	0
